<?xml version="1.0" encoding="UTF-8"?> <svg xmlns="http://www.w3.org/2000/svg" width="262" height="67" viewBox="0 0 262 67" fill="none"><g clip-path="url(#clip0_10101_58013)"><path d="M174.969 17.4679V20.8283H177.093C178.366 20.8283 178.708 20.8283 179.264 20.4395C179.559 20.2287 179.786 19.8004 179.786 19.2535C179.786 18.9965 179.739 18.6934 179.572 18.4035C179.049 17.4877 177.843 17.4877 177.106 17.4877L174.969 17.4745V17.4679ZM174.969 13.0532V15.8799H175.706C176.309 15.8799 176.751 15.8799 177.013 15.8602C177.549 15.8602 178.091 15.847 178.48 15.6361C178.935 15.4121 179.244 14.9772 179.244 14.4633C179.244 14.0284 179.016 13.6001 178.574 13.3431C178.118 13.0862 177.89 13.073 176.323 13.0532H174.969ZM172.832 11.3203H176.946C178.48 11.3335 178.889 11.3533 179.445 11.5114C180.604 11.8474 181.468 12.8621 181.468 14.1009C181.468 14.5951 181.307 15.2078 180.979 15.6427C180.624 16.1105 180.162 16.3478 179.545 16.4598C180.818 16.6838 182.011 17.6985 182.011 19.4446C182.011 20.7426 181.341 21.9023 179.954 22.3833C179.217 22.6403 178.647 22.6535 177.341 22.6535H172.832V11.3203Z" fill="#4C5D5D"></path><path d="M185.568 14.6248V15.7647C185.809 15.3496 186.352 14.4008 188.181 14.4469V16.4236C187.759 16.4434 187.022 16.4566 186.419 16.9046C185.588 17.5306 185.568 18.3476 185.568 19.6852V22.6569H183.672V14.6248H185.568Z" fill="#4C5D5D"></path><path d="M191.15 22.6574H189.207V14.6254H191.15V22.6574ZM191.15 13.3735H189.207V11.4297H191.15V13.3735Z" fill="#4C5D5D"></path><path d="M196.59 16.1026C195.592 16.1026 194.58 16.7615 194.58 18.3033C194.58 19.7002 195.445 20.425 196.604 20.425C197.649 20.425 198.593 19.8649 198.613 18.3824C198.627 17.0843 197.91 16.1026 196.59 16.1026ZM200.51 14.6266V21.2091C200.489 22.797 200.489 23.4427 199.987 24.1148C199.531 24.7078 198.52 25.3338 196.59 25.3338C193.682 25.3338 193.113 24.0951 192.832 22.8102H194.989C195.136 23.278 195.478 23.8051 196.657 23.8051C197.655 23.8051 198.091 23.4164 198.272 23.166C198.567 22.7641 198.567 22.2963 198.567 21.3211C198.145 21.7032 197.294 22.1908 196.114 22.1908C194.185 22.1908 192.57 20.906 192.57 18.3494C192.57 15.3646 194.741 14.3828 196.242 14.3828C197.743 14.3828 198.332 15.1669 198.56 15.4568V14.62H200.503L200.51 14.6266Z" fill="#4C5D5D"></path><path d="M204.302 11.3203V15.4451C204.925 14.8323 205.769 14.3842 206.895 14.3842C207.906 14.3842 208.69 14.7664 209.132 15.254C209.802 15.959 209.822 16.7826 209.822 17.6985V22.6601H207.893V18.2454C207.859 17.5206 207.859 17.3493 207.759 17.1055C207.692 16.9474 207.417 16.2226 206.338 16.2226C205.079 16.2226 204.489 17.2175 204.362 17.6853C204.295 17.9423 204.295 18.0741 204.295 18.9702V22.6666H202.332V11.3203H204.295H204.302Z" fill="#4C5D5D"></path><path d="M213.851 16.0087V19.6393C213.851 20.6342 213.851 21.0691 214.782 21.0691C215.077 21.0691 215.325 21.0493 215.6 20.9703V22.5912C215.01 22.69 214.621 22.723 214.179 22.723C213.77 22.723 212.397 22.723 212.022 21.7412C211.888 21.4183 211.888 20.9044 211.888 20.1005V16.0021H210.695V14.625H211.888V11.7852H213.851V14.625H215.6V16.0021H213.851V16.0087Z" fill="#4C5D5D"></path><path d="M220.233 16.1211C219.007 16.1211 218.129 17.0831 218.129 18.559C218.129 20.2129 219.161 21.1288 220.334 21.1288C221.754 21.1288 222.471 19.9098 222.424 18.5722C222.39 17.2412 221.607 16.1145 220.233 16.1145M220.334 22.888C217.788 22.888 216.086 21.0563 216.086 18.5986C216.086 16.1409 217.814 14.375 220.253 14.375C222.524 14.375 224.467 15.93 224.481 18.5986C224.481 21.1024 222.799 22.888 220.334 22.888Z" fill="#4C5D5D"></path><path d="M225.883 14.6278H227.859V15.5767C227.96 15.4317 228.154 15.1747 228.496 14.9507C228.985 14.5949 229.735 14.3906 230.372 14.3906C231.303 14.3906 232.1 14.8057 232.509 15.3526C233.018 16.0313 233.018 16.8945 233.018 17.9421V22.6665H231.075V18.5681C231.075 17.9751 231.075 17.5731 231.008 17.3491C230.827 16.6441 230.305 16.2751 229.668 16.2751C229.032 16.2751 228.442 16.6441 228.167 17.1712C227.859 17.7642 227.859 18.5878 227.859 19.1809V22.6665H225.883V14.6278Z" fill="#4C5D5D"></path><path d="M183.472 26.5664V37.9061H181.369L181.563 28.5892L179.084 37.9061H177.141L174.642 28.5892L174.85 37.9061H172.746V26.5664H175.882L178.133 34.9806L180.337 26.5664H183.472Z" fill="#4C5D5D"></path><path d="M191.198 32.8641C191.017 31.6122 190.233 31.1773 189.369 31.1773C188.324 31.1773 187.607 31.7703 187.379 32.8641H191.198ZM193.423 36.1059C192.411 37.4369 191.104 38.1419 189.436 38.1419C187.299 38.1419 185.242 36.811 185.242 33.8525C185.242 31.151 187.004 29.6289 189.309 29.6289C191.466 29.6289 192.364 30.9006 192.525 31.1378C193.195 32.0669 193.342 33.4637 193.356 34.2676H187.312C187.54 35.5327 188.344 36.2575 189.631 36.2575C190.917 36.2575 191.506 35.4866 191.754 35.1505L193.423 36.0993V36.1059Z" fill="#4C5D5D"></path><path d="M196.87 31.2575V34.8881C196.87 35.883 196.87 36.3179 197.802 36.3179C198.096 36.3179 198.344 36.3047 198.619 36.2191V37.84C198.029 37.9388 197.641 37.9717 197.199 37.9717C196.79 37.9717 195.417 37.9717 195.041 36.99C194.907 36.6671 194.907 36.1532 194.907 35.3493V31.2509H193.715V29.8672H194.907V27.0273H196.87V29.8672H198.619V31.2509H196.87V31.2575Z" fill="#4C5D5D"></path><path d="M201.654 29.8748V31.0147C201.895 30.5996 202.438 29.6508 204.267 29.6969V31.6736C203.845 31.6868 203.108 31.7066 202.505 32.1546C201.674 32.7806 201.654 33.5976 201.654 34.9352V37.9069H199.758V29.8748H201.654Z" fill="#4C5D5D"></path><path d="M208.971 31.3684C207.745 31.3684 206.868 32.3304 206.868 33.8129C206.868 35.4668 207.899 36.3827 209.072 36.3827C210.492 36.3827 211.209 35.1637 211.162 33.8261C211.129 32.4951 210.345 31.3684 208.971 31.3684ZM209.072 38.1419C206.526 38.1419 204.824 36.3102 204.824 33.8525C204.824 31.3948 206.553 29.6289 208.991 29.6289C211.263 29.6289 213.206 31.1905 213.219 33.8525C213.219 36.3563 211.537 38.1419 209.072 38.1419Z" fill="#4C5D5D"></path><path d="M218.552 36.33C219.497 36.33 220.529 35.6842 220.529 33.8722C220.529 31.8626 219.108 31.4804 218.519 31.4804C217.621 31.4804 216.589 32.1262 216.562 33.8393C216.529 35.4932 217.46 36.33 218.552 36.33ZM214.633 29.8727H216.576V30.6107C216.884 30.2878 217.541 29.6289 218.813 29.6289C221.212 29.6289 222.518 31.7506 222.518 33.9645C222.518 36.3563 220.998 38.1419 218.813 38.1419C217.688 38.1419 216.984 37.6148 216.576 37.2458V40.5206H214.633V29.8727Z" fill="#4C5D5D"></path><path d="M227.663 31.3684C226.437 31.3684 225.559 32.3304 225.559 33.8129C225.559 35.4668 226.591 36.3827 227.763 36.3827C229.184 36.3827 229.9 35.1637 229.854 33.8261C229.82 32.4951 229.036 31.3684 227.663 31.3684ZM227.763 38.1419C225.217 38.1419 223.516 36.3102 223.516 33.8525C223.516 31.3948 225.244 29.6289 227.683 29.6289C229.954 29.6289 231.897 31.1905 231.91 33.8525C231.91 36.3563 230.229 38.1419 227.763 38.1419Z" fill="#4C5D5D"></path><path d="M235.316 26.5664H233.34V37.9061H235.316V26.5664Z" fill="#4C5D5D"></path><path d="M239.115 37.9035H237.172V29.8715H239.115V37.9035ZM239.115 28.6195H237.172V26.6758H239.115V28.6195Z" fill="#4C5D5D"></path><path d="M243.234 31.2575V34.8881C243.234 35.883 243.234 36.3179 244.165 36.3179C244.46 36.3179 244.708 36.3047 244.982 36.2191V37.84C244.393 37.9388 244.004 37.9717 243.562 37.9717C243.153 37.9717 241.78 37.9717 241.405 36.99C241.271 36.6671 241.271 36.1532 241.271 35.3493V31.2509H240.078V29.8672H241.271V27.0273H243.234V29.8672H244.982V31.2509H243.234V31.2575Z" fill="#4C5D5D"></path><path d="M251.054 33.9052C250.665 34.0963 250.223 34.2412 249.339 34.3862C248.635 34.485 247.704 34.6432 247.704 35.4932C247.704 36.1191 248.24 36.442 249.024 36.442C250.022 36.442 250.719 35.9939 250.933 35.5129C251.047 35.2691 251.047 35.0319 251.047 34.7881V33.9052H251.054ZM246.009 32.2316C246.043 31.8296 246.076 31.4936 246.337 31.0258C247.121 29.6289 249.064 29.6289 249.587 29.6289C250.371 29.6289 251.322 29.7277 252.039 30.1429C253.004 30.7227 253.017 31.4738 253.017 32.3436V36.6001C253.017 37.2129 253.017 37.4172 253.379 37.8982H251.061C251.047 37.7071 251.014 37.3842 251.014 37.2722C250.592 37.628 249.727 38.0892 248.595 38.0892C246.753 38.0892 245.641 36.9625 245.641 35.5854C245.641 35.1835 245.741 34.8145 245.902 34.4916C246.491 33.3385 247.751 33.0816 248.535 32.9366C250.217 32.6006 250.351 32.5676 251.067 32.3436C251.067 31.9417 251.034 31.1246 249.681 31.1246C248.863 31.1246 248.421 31.3816 248.227 31.6386C248.012 31.8955 248.032 32.1196 248.032 32.3436L246.022 32.2316H246.009Z" fill="#4C5D5D"></path><path d="M254.863 29.8739H256.84V30.8227C256.94 30.6778 257.134 30.4208 257.476 30.1968C257.965 29.841 258.716 29.6367 259.352 29.6367C260.283 29.6367 261.081 30.0518 261.489 30.5987C261.998 31.2708 261.999 32.1406 261.999 33.1816V37.906H260.056V33.8142C260.056 33.2212 260.056 32.8192 259.989 32.5952C259.808 31.8902 259.285 31.5212 258.649 31.5212C258.012 31.5212 257.423 31.8902 257.148 32.4239C256.84 33.0169 256.84 33.8339 256.84 34.4335V37.9191H254.863V29.8871V29.8739Z" fill="#4C5D5D"></path><path d="M182.481 49.9916C182.333 50.3606 182.058 51.0195 181.482 51.6916C180.665 52.6206 179.379 53.4442 177.496 53.4442C174.441 53.4442 172.109 51.2435 172.109 47.4548C172.109 43.6661 174.642 41.5312 177.576 41.5312C181.167 41.5312 182.018 44.2459 182.28 45.03L180.122 45.5901C180.089 45.3792 179.995 44.8983 179.7 44.4634C179.452 44.1076 178.816 43.4684 177.623 43.4684C175.747 43.4684 174.441 44.9971 174.441 47.4219C174.441 50.0048 175.828 51.4346 177.643 51.4346C178.722 51.4346 179.379 50.9206 179.848 50.3276C180.223 49.8269 180.37 49.4117 180.451 49.1548L182.474 49.9916H182.481Z" fill="#4C5D5D"></path><path d="M187.499 46.6145C186.273 46.6145 185.395 47.5765 185.395 49.059C185.395 50.7129 186.427 51.6288 187.599 51.6288C189.02 51.6288 189.736 50.4098 189.69 49.0722C189.656 47.7412 188.872 46.6145 187.499 46.6145ZM187.599 53.388C185.053 53.388 183.352 51.5563 183.352 49.0986C183.352 46.6409 185.08 44.875 187.519 44.875C189.79 44.875 191.733 46.4366 191.746 49.0986C191.746 51.6024 190.065 53.388 187.599 53.388Z" fill="#4C5D5D"></path><path d="M195.156 41.8125H193.18V53.1522H195.156V41.8125Z" fill="#4C5D5D"></path><path d="M198.98 41.8125H197.004V53.1522H198.98V41.8125Z" fill="#4C5D5D"></path><path d="M206.378 48.1102C206.197 46.8583 205.413 46.4234 204.549 46.4234C203.504 46.4234 202.787 47.0164 202.559 48.1102H206.378ZM208.602 51.352C207.591 52.683 206.284 53.388 204.616 53.388C202.479 53.388 200.422 52.0571 200.422 49.0986C200.422 46.3971 202.184 44.875 204.489 44.875C206.646 44.875 207.544 46.1467 207.704 46.3839C208.374 47.3129 208.522 48.7098 208.535 49.5137H202.492C202.72 50.7788 203.524 51.5036 204.81 51.5036C206.097 51.5036 206.686 50.7327 206.934 50.3966L208.602 51.3454V51.352Z" fill="#4C5D5D"></path><path d="M213.465 46.6026C212.467 46.6026 211.455 47.2615 211.455 48.8033C211.455 50.2002 212.32 50.925 213.479 50.925C214.524 50.925 215.468 50.3649 215.488 48.8824C215.502 47.5843 214.785 46.6026 213.465 46.6026ZM217.385 45.1266V51.7091C217.364 53.297 217.364 53.9427 216.862 54.6148C216.406 55.2078 215.395 55.8338 213.465 55.8338C210.557 55.8338 209.988 54.5951 209.707 53.3102H211.864C212.011 53.778 212.353 54.3051 213.532 54.3051C214.53 54.3051 214.966 53.923 215.147 53.6594C215.442 53.2575 215.442 52.7897 215.442 51.8145C215.02 52.1966 214.169 52.6842 212.989 52.6842C211.06 52.6842 209.445 51.3994 209.445 48.8494C209.445 45.8646 211.616 44.8828 213.117 44.8828C214.618 44.8828 215.207 45.6669 215.435 45.9568V45.12H217.378L217.385 45.1266Z" fill="#4C5D5D"></path><path d="M224.769 48.1102C224.588 46.8583 223.804 46.4234 222.94 46.4234C221.894 46.4234 221.178 47.0164 220.95 48.1102H224.769ZM226.993 51.352C225.981 52.683 224.675 53.388 223.007 53.388C220.869 53.388 218.812 52.0571 218.812 49.0986C218.812 46.3971 220.575 44.875 222.879 44.875C225.037 44.875 225.934 46.1467 226.095 46.3839C226.765 47.3129 226.912 48.7098 226.926 49.5137H220.883C221.111 50.7788 221.914 51.5036 223.201 51.5036C224.487 51.5036 225.077 50.7327 225.325 50.3966L226.993 51.3454V51.352Z" fill="#4C5D5D"></path><path d="M108.461 10.1523V22.6715H127.153V53.2315H141.517V22.6715H160.203V10.1523H108.461Z" fill="#4C5D5D"></path><path d="M56.6875 10.1523V53.2315H103.525V40.7057H71.0517V37.3783H101.18V26.0056H71.0517V22.6715H103.525V10.1523H56.6875Z" fill="#4C5D5D"></path><path d="M37.3778 10.1523L25.8744 23.4754L14.3642 10.1523H0V53.2315H14.3642V29.9656L25.8744 43.2952L37.3778 29.9656V53.2315H51.7421V10.1523H37.3778Z" fill="#4C5D5D"></path></g><defs><clipPath id="clip0_10101_58013"><rect width="262" height="45.6818" fill="white" transform="translate(0 10.1523)"></rect></clipPath></defs></svg> 